<svg xmlns="http://www.w3.org/2000/svg" viewBox="0 0 44.22 25.85" height="24"><defs><style>.cls-3{fill:none;stroke:#fff;stroke-linecap:round;stroke-linejoin:round;stroke-width:1.8px}</style></defs><g id="Layer_2" data-name="Layer 2"><g id="Layer_1-2" data-name="Layer 1"><circle cx="7.66" cy="22.02" r="3" style="stroke-width:1.66px;fill:none;stroke:#fff;stroke-linecap:round;stroke-linejoin:round"/><circle cx="24.79" cy="22.02" r="3" style="stroke-width:1.66px;fill:none;stroke:#fff;stroke-linecap:round;stroke-linejoin:round"/><path class="cls-3" d="M28.61 22h4.13a1.44 1.44 0 0 0 1.44-1.44v-6M27.12.9h-12.3a1.44 1.44 0 0 0-1.44 1.44v18.24A1.44 1.44 0 0 0 14.82 22h6.29M10.27 5.92H6.75a2.65 2.65 0 0 0-2.21 1.19L1.33 12a2.64 2.64 0 0 0-.43 1.47v6.46A2.1 2.1 0 0 0 3 22h.75"/><path class="cls-3" d="M34.18 3.47V2.34A1.44 1.44 0 0 0 32.74.9h-7.66M43.32 6.97H32.57M40.5 11.05h-7.93M42.09 16.33h-4.02"/></g></g></svg>